<svg xmlns="http://www.w3.org/2000/svg" viewBox="0 0 100 100">
  <path fill="#0f4c81" d="M50,18.5c-1.5,0-2.9,0.1-4.3,0.3l-1,5.9c-1.4,0.3-2.8,0.7-4.1,1.2l-3.8-4.7c-2.5,1-4.8,2.4-6.9,4.1l2.3,5.4
  c-1,0.9-2,1.9-2.9,3l-5.7-1.5c-1.5,2.2-2.7,4.6-3.6,7.1l4.3,3.9c-0.4,1.3-0.7,2.7-0.9,4.1l-5.9,1c-0.2,1.4-0.3,2.9-0.3,4.3
  c0,1.5,0.1,2.9,0.3,4.3l5.9,1c0.3,1.4,0.7,2.8,1.2,4.1l-4.7,3.8c1,2.5,2.4,4.8,4.1,6.9l5.4-2.3c0.9,1,1.9,2,3,2.9l-1.5,5.7
  c2.2,1.5,4.6,2.7,7.1,3.6l3.9-4.3c1.3,0.4,2.7,0.7,4.1,0.9l1,5.9c1.4,0.2,2.9,0.3,4.3,0.3c1.5,0,2.9-0.1,4.3-0.3l1-5.9
  c1.4-0.3,2.8-0.7,4.1-1.2l3.8,4.7c2.5-1,4.8-2.4,6.9-4.1l-2.3-5.4c1-0.9,2-1.9,2.9-3l5.7,1.5c1.5-2.2,2.7-4.6,3.6-7.1l-4.3-3.9
  c0.4-1.3,0.7-2.7,0.9-4.1l5.9-1c0.2-1.4,0.3-2.9,0.3-4.3c0-1.5-0.1-2.9-0.3-4.3l-5.9-1c-0.3-1.4-0.7-2.8-1.2-4.1l4.7-3.8
  c-1-2.5-2.4-4.8-4.1-6.9l-5.4,2.3c-0.9-1-1.9-2-3-2.9l1.5-5.7c-2.2-1.5-4.6-2.7-7.1-3.6l-3.9,4.3c-1.3-0.4-2.7-0.7-4.1-0.9l-1-5.9
  C52.9,18.6,51.5,18.5,50,18.5z M50,34.5c8.6,0,15.5,6.9,15.5,15.5c0,8.6-6.9,15.5-15.5,15.5c-8.6,0-15.5-6.9-15.5-15.5
  C34.5,41.4,41.4,34.5,50,34.5z"/>
</svg>
